<svg xmlns="http://www.w3.org/2000/svg" viewBox="0 0 512 512">
  <path fill="#34A853" d="M256 386.6c-25.6 0-49.4-7.1-70.6-21.2s-37.1-31.8-47.7-53.8L31.8 128C9.7 167.7 0 211 0 256c0 64.4 21.2 120.1 62.7 167.7s93.6 75.9 155.4 85.6l74.1-128.9c-7.1 2.7-20.3 6.2-36.2 6.2z"/>
  <path fill="#EA4335" d="M175.7 150.1C199.5 131.6 226 123.6 256 123.6h219.8c-23-38.8-53.8-67.1-92.7-89.2C344.3 11.5 301.9 0 256 0c-39.7 0-77.7 8.8-112.1 25.6S76.8 67.1 53.8 98.9L128 220.7c7.1-28.2 23.8-52.1 47.7-70.6z"/>
  <path fill="#FBBC05" d="M492.6 159.8H344.3c25.6 25.6 43.3 59.1 43.3 96.2 0 27.4-7.9 52.1-23 75L258.6 512c69.7-.9 129.8-25.6 179.2-75.9S512 325.7 512 256c0-32.7-5.3-67.1-19.4-96.2z"/>
  <circle cx="256" cy="256" r="97" fill="#4285F4"/>
</svg>
