<svg xmlns="http://www.w3.org/2000/svg" width="299" height="284" viewBox="0 0 299 284">
  <defs>
    <linearGradient id="bgTop" x1="0" y1="0" x2="0" y2="1">
      <stop offset="0%" stop-color="#b6d5e8"/>
      <stop offset="18%" stop-color="#85c0e4"/>
      <stop offset="55%" stop-color="#3d9ad0"/>
      <stop offset="100%" stop-color="#006ea8"/>
    </linearGradient>
    <linearGradient id="bgBottom" x1="0" y1="0" x2="0" y2="1">
      <stop offset="0%" stop-color="#1c1d21"/>
      <stop offset="100%" stop-color="#07080a"/>
    </linearGradient>
    <linearGradient id="wave1" x1="0" y1="0" x2="1" y2="0">
      <stop offset="0%" stop-color="#6ab7e3" stop-opacity=".95"/>
      <stop offset="100%" stop-color="#9dd3ee" stop-opacity=".5"/>
    </linearGradient>
    <linearGradient id="wave2" x1="0" y1="0" x2="1" y2="0">
      <stop offset="0%" stop-color="#2f8fca" stop-opacity=".95"/>
      <stop offset="100%" stop-color="#0d6ba0" stop-opacity=".9"/>
    </linearGradient>
    <linearGradient id="shine" x1="0" y1="0" x2="0" y2="1">
      <stop offset="0%" stop-color="#ffffff" stop-opacity=".65"/>
      <stop offset="100%" stop-color="#ffffff" stop-opacity="0"/>
    </linearGradient>
    <filter id="softGlow" x="-20%" y="-20%" width="140%" height="140%">
      <feGaussianBlur stdDeviation="1.6" result="b"/>
      <feMerge><feMergeNode in="b"/><feMergeNode in="SourceGraphic"/></feMerge>
    </filter>
    <clipPath id="roundClip">
      <rect x="1" y="1" width="297" height="282" rx="30" ry="30"/>
    </clipPath>
  </defs>
  <g clip-path="url(#roundClip)">
    <rect x="1" y="1" width="297" height="282" rx="30" ry="30" fill="#0a0b0d"/>
    <rect x="1" y="1" width="297" height="155" fill="url(#bgTop)"/>
    <path d="M0 28 C 42 16, 78 20, 116 30 C 155 40, 199 37, 239 21 C 264 11, 284 11, 299 18 L299 1 L0 1 Z" fill="#dbeaf2" opacity=".30"/>
    <path d="M0 92 C 26 84, 56 86, 85 90 C 127 96, 156 96, 193 86 C 222 79, 260 80, 299 90 L299 112 L0 112 Z" fill="url(#wave1)" opacity=".65"/>
    <path d="M0 108 C 33 100, 72 105, 108 112 C 148 120, 176 119, 214 111 C 241 105, 269 104, 299 109 L299 156 L0 156 Z" fill="url(#wave2)"/>
    <rect x="0" y="153" width="299" height="3" fill="#e8eef2"/>
    <rect x="1" y="156" width="297" height="127" fill="url(#bgBottom)"/>
    <path d="M0 156 C 40 151, 92 157, 126 159 C 171 162, 213 160, 299 156 L299 169 L0 169 Z" fill="#8f9195" opacity=".85"/>
    <rect x="1" y="1" width="297" height="86" fill="url(#shine)" opacity=".55"/>
    <g filter="url(#softGlow)" stroke="#77bdf0" stroke-width="2.5" stroke-linejoin="round">
      <rect x="72" y="21" width="34" height="125" fill="#f4f4f4"/>
      <path d="M133 53 H155 C160 53 164 55 167 58 L172 63 C175 66 177 72 177 78 V146 H133 Z" fill="#f4f4f4"/>
      <circle cx="222" cy="126" r="22.5" fill="#f4f4f4"/>
    </g>
    <g fill="#f4f4f4">
      <path d="M64 178 H109 V248 C109 257 101 264 91 269 C82 273 75 274 69 274 V178 Z"/>
      <path d="M131 176 H176 V246 C176 256 167 264 155 270 C147 273 139 274 133 274 V176 Z"/>
      <path d="M198 178 H243 V246 C243 256 235 263 224 269 C216 273 208 274 202 274 V178 Z"/>
    </g>
  </g>
  <rect x="1" y="1" width="297" height="282" rx="30" ry="30" fill="none" stroke="#d8dadd" stroke-width="1.2"/>
</svg>
