<svg xmlns="http://www.w3.org/2000/svg" viewBox="0 0 110 110">
  <defs>
    <linearGradient id="b" x1="0" y1="0" x2="0" y2="1">
      <stop offset="0" stop-color="#5a9fd4"/>
      <stop offset="1" stop-color="#306998"/>
    </linearGradient>
    <linearGradient id="y" x1="0" y1="0" x2="0" y2="1">
      <stop offset="0" stop-color="#ffd43b"/>
      <stop offset="1" stop-color="#ffe873"/>
    </linearGradient>
  </defs>
  <path fill="url(#b)" d="M54.9 0C50.3 0 46 0.4 42.1 1.1 30.8 3.1 28.7 7.3 28.7 15v10.2h26.8v3.4H28.7 18.6C10.8 28.6 4 33.3 1.9 42.2c-2.5 10.2-2.6 16.6 0 27.3 1.9 7.9 6.5 13.6 14.2 13.6h9.2V70.9c0-8.8 7.7-16.7 16.8-16.7h26.8c7.5 0 13.4-6.1 13.4-13.6V15c0-7.3-6.1-12.7-13.4-13.9C64.3 0.3 59.5 0 54.9 0zm-14.5 8.2c2.8 0 5 2.3 5 5.1s-2.3 5.1-5 5.1-5-2.3-5-5.1 2.3-5.1 5-5.1z"/>
  <path fill="url(#y)" d="M85.6 28.7v11.9c0 9.2-7.8 17-16.8 17H42.1c-7.3 0-13.4 6.3-13.4 13.6v25.5c0 7.3 6.3 11.5 13.4 13.6 8.5 2.5 16.6 2.9 26.8 0 6.7-2 13.4-5.9 13.4-13.6V86.5H55.5v-3.4h26.8 13.4c7.8 0 10.7-5.4 13.4-13.6 2.8-8.4 2.7-16.5 0-27.3-1.9-7.7-5.6-13.6-13.4-13.6H85.6zm-15.1 64.7c2.8 0 5 2.3 5 5.1s-2.3 5.1-5 5.1-5-2.3-5-5.1 2.3-5.1 5-5.1z"/>
</svg>
